<svg width="108" height="85" viewBox="0 0 108 85" fill="none" xmlns="http://www.w3.org/2000/svg">
<ellipse cx="63.5" cy="42.5" rx="44.5" ry="42.5" fill="#F7956E" fill-opacity="0.5"/>
<ellipse cx="44" cy="42.5" rx="44" ry="42.5" fill="#F7956E"/>
<path d="M41.7181 57V35.91H46.2781V57H41.7181ZM42.0481 33.33C41.6481 32.85 41.3381 32.39 41.1181 31.95C40.9181 31.51 40.8181 31.05 40.8181 30.57C40.8181 29.83 41.0081 29.18 41.3881 28.62C41.7681 28.04 42.2681 27.59 42.8881 27.27C43.5081 26.93 44.1881 26.76 44.9281 26.76C45.3481 26.76 45.7681 26.82 46.1881 26.94C46.6081 27.04 46.9581 27.19 47.2381 27.39L46.1581 29.4C45.9781 29.3 45.7881 29.23 45.5881 29.19C45.4081 29.15 45.2281 29.13 45.0481 29.13C44.5681 29.13 44.1981 29.26 43.9381 29.52C43.6781 29.78 43.5481 30.11 43.5481 30.51C43.5481 30.75 43.5981 30.98 43.6981 31.2C43.7981 31.42 43.9481 31.64 44.1481 31.86L42.0481 33.33ZM40.1281 33.63V31.29H47.8681V33.63H40.1281Z" fill="white"/>
</svg>
