<svg width="1440" height="647" viewBox="0 0 1440 647" fill="none" xmlns="http://www.w3.org/2000/svg">
<path d="M-8.04041 0H1440V582.557C1105.56 805.77 -89.3755 359.408 -8.04041 582.557V0Z" fill="url(#paint0_linear_2_11)" fill-opacity="0.85"/>
<path d="M-8.04041 -2H1440V506.32C1105.56 701.088 -89.3755 311.607 -8.04041 506.32L-8.04041 -2Z" fill="url(#paint1_linear_2_11)"/>
<circle cx="1326.91" cy="107.908" r="57.3123" transform="rotate(-116.6 1326.91 107.908)" fill="url(#paint2_linear_2_11)"/>
<circle cx="76.6361" cy="233.636" r="19.1041" transform="rotate(-116.6 76.6361 233.636)" fill="url(#paint3_linear_2_11)"/>
<circle cx="532.636" cy="379.636" r="19.1041" transform="rotate(-116.6 532.636 379.636)" fill="url(#paint4_linear_2_11)"/>
<path d="M868.954 451.281L812.702 343.82L925.206 343.82L868.954 451.281Z" fill="url(#paint5_linear_2_11)"/>
<path d="M230.777 220.229L244.433 249.081L216.31 248.684L230.777 220.229Z" fill="url(#paint6_linear_2_11)"/>
<path d="M236.925 59L256.778 100.551H217.071L236.925 59Z" fill="url(#paint7_linear_2_11)"/>
<path d="M888.104 190L904.649 225.82H871.559L888.104 190Z" fill="url(#paint8_linear_2_11)"/>
<rect x="436" y="151" width="70.6851" height="68.7747" fill="url(#paint9_linear_2_11)"/>
<g filter="url(#filter0_d_2_11)">
<rect x="140.208" y="411.387" width="38.2082" height="34.3874" transform="rotate(180 140.208 411.387)" fill="url(#paint10_linear_2_11)"/>
</g>
<g filter="url(#filter1_d_2_11)">
<rect x="362.5" y="324.5" width="37.2082" height="37.2082" stroke="url(#paint11_linear_2_11)" shape-rendering="crispEdges"/>
</g>
<rect x="691.5" y="272.5" width="21.9249" height="21.9249" stroke="url(#paint12_linear_2_11)"/>
<defs>
<filter id="filter0_d_2_11" x="98" y="377" width="46.2082" height="42.3874" filterUnits="userSpaceOnUse" color-interpolation-filters="sRGB">
<feFlood flood-opacity="0" result="BackgroundImageFix"/>
<feColorMatrix in="SourceAlpha" type="matrix" values="0 0 0 0 0 0 0 0 0 0 0 0 0 0 0 0 0 0 127 0" result="hardAlpha"/>
<feOffset dy="4"/>
<feGaussianBlur stdDeviation="2"/>
<feComposite in2="hardAlpha" operator="out"/>
<feColorMatrix type="matrix" values="0 0 0 0 0 0 0 0 0 0 0 0 0 0 0 0 0 0 0.25 0"/>
<feBlend mode="normal" in2="BackgroundImageFix" result="effect1_dropShadow_2_11"/>
<feBlend mode="normal" in="SourceGraphic" in2="effect1_dropShadow_2_11" result="shape"/>
</filter>
<filter id="filter1_d_2_11" x="358" y="324" width="46.2082" height="46.2082" filterUnits="userSpaceOnUse" color-interpolation-filters="sRGB">
<feFlood flood-opacity="0" result="BackgroundImageFix"/>
<feColorMatrix in="SourceAlpha" type="matrix" values="0 0 0 0 0 0 0 0 0 0 0 0 0 0 0 0 0 0 127 0" result="hardAlpha"/>
<feOffset dy="4"/>
<feGaussianBlur stdDeviation="2"/>
<feComposite in2="hardAlpha" operator="out"/>
<feColorMatrix type="matrix" values="0 0 0 0 0 0 0 0 0 0 0 0 0 0 0 0 0 0 0.25 0"/>
<feBlend mode="normal" in2="BackgroundImageFix" result="effect1_dropShadow_2_11"/>
<feBlend mode="normal" in="SourceGraphic" in2="effect1_dropShadow_2_11" result="shape"/>
</filter>
<linearGradient id="paint0_linear_2_11" x1="2481.29" y1="-127.122" x2="1200.27" y2="1680.16" gradientUnits="userSpaceOnUse">
<stop stop-color="#F47D83" stop-opacity="0.6"/>
<stop offset="0.484234" stop-color="#F7956E" stop-opacity="0.6"/>
<stop offset="0.958901" stop-color="#FDD456" stop-opacity="0.6"/>
</linearGradient>
<linearGradient id="paint1_linear_2_11" x1="2481.29" y1="-220.35" x2="1421.38" y2="1493.37" gradientUnits="userSpaceOnUse">
<stop stop-color="#2A0959"/>
<stop offset="0.0001" stop-color="#FF6B6B"/>
<stop offset="0.484234" stop-color="#F7956E"/>
<stop offset="0.958901" stop-color="#FDD456"/>
</linearGradient>
<linearGradient id="paint2_linear_2_11" x1="1341.98" y1="10.3892" x2="1326.91" y2="165.221" gradientUnits="userSpaceOnUse">
<stop stop-color="#FDD456"/>
<stop offset="1" stop-color="#F47D83"/>
</linearGradient>
<linearGradient id="paint3_linear_2_11" x1="81.6602" y1="201.13" x2="76.6361" y2="252.74" gradientUnits="userSpaceOnUse">
<stop stop-color="#FDD456"/>
<stop offset="1" stop-color="#F47D83"/>
</linearGradient>
<linearGradient id="paint4_linear_2_11" x1="537.66" y1="347.13" x2="532.636" y2="398.74" gradientUnits="userSpaceOnUse">
<stop stop-color="#FDD456"/>
<stop offset="1" stop-color="#F47D83"/>
</linearGradient>
<linearGradient id="paint5_linear_2_11" x1="868.954" y1="451.281" x2="868.954" y2="308" gradientUnits="userSpaceOnUse">
<stop stop-color="#4BBD9B"/>
<stop offset="1" stop-color="#D9D9D9" stop-opacity="0"/>
</linearGradient>
<linearGradient id="paint6_linear_2_11" x1="229.552" y1="205.899" x2="234.328" y2="251.749" gradientUnits="userSpaceOnUse">
<stop stop-color="#4BBD9B"/>
<stop offset="1" stop-color="#FBBB60"/>
</linearGradient>
<linearGradient id="paint7_linear_2_11" x1="236.925" y1="59" x2="237.181" y2="97.2065" gradientUnits="userSpaceOnUse">
<stop stop-color="#F47D83"/>
<stop offset="1" stop-color="#FBC15D"/>
</linearGradient>
<linearGradient id="paint8_linear_2_11" x1="888.104" y1="190" x2="888.333" y2="222.937" gradientUnits="userSpaceOnUse">
<stop stop-color="#F47D83"/>
<stop offset="1" stop-color="#F9A667"/>
</linearGradient>
<linearGradient id="paint9_linear_2_11" x1="471.343" y1="151" x2="477.47" y2="229.296" gradientUnits="userSpaceOnUse">
<stop stop-color="#F7956E"/>
<stop offset="1" stop-color="#FAB462"/>
</linearGradient>
<linearGradient id="paint10_linear_2_11" x1="159.312" y1="392.283" x2="159.525" y2="445.774" gradientUnits="userSpaceOnUse">
<stop stop-color="#4BBD9B"/>
<stop offset="1" stop-color="#FBC35C"/>
</linearGradient>
<linearGradient id="paint11_linear_2_11" x1="381.104" y1="324" x2="381.104" y2="381.312" gradientUnits="userSpaceOnUse">
<stop stop-color="#82C199"/>
<stop offset="1" stop-color="#FBC35C"/>
</linearGradient>
<linearGradient id="paint12_linear_2_11" x1="702.462" y1="272" x2="702.462" y2="306.387" gradientUnits="userSpaceOnUse">
<stop stop-color="#82C199"/>
<stop offset="1" stop-color="#FBC35C"/>
</linearGradient>
</defs>
</svg>
