<svg width="514" height="385" viewBox="0 0 514 385" fill="none" xmlns="http://www.w3.org/2000/svg">
<path d="M514 257C514 398.937 393.437 384 251.5 384C109.563 384 0 398.937 0 257C0 115.063 115.063 0 257 0C398.937 0 514 115.063 514 257Z" fill="url(#paint0_radial_2_95)" fill-opacity="0.4"/>
<g filter="url(#filter0_d_2_95)">
<rect x="39.0192" y="140.981" width="417.981" height="179.577" rx="7" fill="white"/>
</g>
<path d="M295.963 202.428V181.218H299.983V202.428H295.963ZM292.573 202.428V198.948H295.963V202.428H292.573ZM292.573 202.428C292.333 202.428 292.173 202.268 292.093 201.948C292.013 201.628 291.973 201.208 291.973 200.688C291.973 200.148 292.013 199.728 292.093 199.428C292.173 199.108 292.333 198.948 292.573 198.948V202.428ZM279.163 209.868C277.863 209.868 276.653 209.678 275.533 209.298C274.433 208.938 273.473 208.428 272.653 207.768C271.833 207.128 271.183 206.358 270.703 205.458C270.243 204.578 270.013 203.618 270.013 202.578C270.013 202.198 270.043 201.708 270.103 201.108C270.163 200.508 270.243 199.818 270.343 199.038C270.463 198.258 270.593 197.428 270.733 196.548L274.693 197.088C274.493 198.348 274.333 199.468 274.213 200.448C274.093 201.428 274.033 202.118 274.033 202.518C274.033 203.278 274.243 203.948 274.663 204.528C275.083 205.108 275.673 205.558 276.433 205.878C277.213 206.218 278.123 206.388 279.163 206.388H287.653C288.953 206.388 289.923 206.058 290.563 205.398C291.203 204.738 291.523 203.778 291.523 202.518V201.378H295.513V202.518C295.513 203.958 295.193 205.228 294.553 206.328C293.913 207.428 293.003 208.288 291.823 208.908C290.663 209.548 289.273 209.868 287.653 209.868H279.163ZM290.203 202.428C289.283 202.428 288.393 202.328 287.533 202.128C286.693 201.928 285.893 201.568 285.133 201.048L287.413 198.168C287.733 198.388 288.013 198.558 288.253 198.678C288.513 198.778 288.793 198.848 289.093 198.888C289.413 198.928 289.783 198.948 290.203 198.948H296.833V202.428H290.203ZM296.833 202.428V198.948C297.053 198.948 297.203 199.108 297.283 199.428C297.383 199.728 297.433 200.148 297.433 200.688C297.433 201.208 297.383 201.628 297.283 201.948C297.203 202.268 297.053 202.428 296.833 202.428ZM304.794 202.428V181.218H308.784V202.428H304.794ZM336.931 202.428V198.948H340.081V202.428H336.931ZM328.291 209.868C326.551 209.868 324.991 209.548 323.611 208.908C322.251 208.288 321.181 207.418 320.401 206.298C319.621 205.178 319.231 203.908 319.231 202.488C319.231 202.088 319.261 201.558 319.321 200.898C319.381 200.238 319.461 199.498 319.561 198.678C319.681 197.858 319.801 197.028 319.921 196.188C320.061 195.328 320.191 194.498 320.311 193.698L324.271 194.238C324.051 195.578 323.861 196.808 323.701 197.928C323.561 199.028 323.451 199.968 323.371 200.748C323.291 201.528 323.251 202.098 323.251 202.458C323.251 203.258 323.451 203.948 323.851 204.528C324.251 205.108 324.821 205.558 325.561 205.878C326.321 206.218 327.231 206.388 328.291 206.388C329.391 206.388 330.281 206.228 330.961 205.908C331.641 205.588 332.131 205.148 332.431 204.588C332.751 204.028 332.911 203.398 332.911 202.698V181.218H336.931V202.698C336.931 204.138 336.551 205.398 335.791 206.478C335.051 207.558 334.031 208.388 332.731 208.968C331.431 209.568 329.951 209.868 328.291 209.868ZM340.081 202.428V198.948C340.321 198.948 340.481 199.108 340.561 199.428C340.641 199.728 340.681 200.148 340.681 200.688C340.681 201.208 340.641 201.628 340.561 201.948C340.481 202.268 340.321 202.428 340.081 202.428ZM356.892 202.428V198.948H360.042V202.428H356.892ZM340.092 202.428V198.948H354.102L352.872 199.998V189.978L353.892 190.848H350.112C349.232 190.848 348.542 190.958 348.042 191.178C347.542 191.398 347.192 191.808 346.992 192.408C346.792 192.988 346.692 193.818 346.692 194.898C346.692 196.078 346.792 196.958 346.992 197.538C347.192 198.098 347.542 198.478 348.042 198.678C348.542 198.858 349.232 198.948 350.112 198.948V202.068C348.412 202.068 347.012 201.828 345.912 201.348C344.812 200.868 343.992 200.108 343.452 199.068C342.932 198.008 342.672 196.618 342.672 194.898C342.672 193.258 342.932 191.878 343.452 190.758C343.992 189.638 344.812 188.798 345.912 188.238C347.012 187.658 348.412 187.368 350.112 187.368H356.892V202.428H340.092ZM340.092 202.428C339.852 202.428 339.692 202.268 339.612 201.948C339.532 201.628 339.492 201.208 339.492 200.688C339.492 200.148 339.532 199.728 339.612 199.428C339.692 199.108 339.852 198.948 340.092 198.948V202.428ZM360.042 202.428V198.948C360.282 198.948 360.442 199.108 360.522 199.428C360.602 199.728 360.642 200.148 360.642 200.688C360.642 201.208 360.602 201.628 360.522 201.948C360.442 202.268 360.282 202.428 360.042 202.428ZM347.052 185.568V182.148H351.072V185.568H347.052ZM351.162 185.568V182.148H355.182V185.568H351.162ZM368.803 202.428V198.948H372.553V202.428H368.803ZM372.553 202.428V198.948C372.793 198.948 372.953 199.108 373.033 199.428C373.113 199.728 373.153 200.148 373.153 200.688C373.153 201.208 373.113 201.628 373.033 201.948C372.953 202.268 372.793 202.428 372.553 202.428ZM360.043 202.428V198.948H367.153L364.813 200.898V187.368H368.803V202.428H360.043ZM360.043 202.428C359.803 202.428 359.643 202.268 359.563 201.948C359.483 201.628 359.443 201.208 359.443 200.688C359.443 200.148 359.483 199.728 359.563 199.428C359.643 199.108 359.803 198.948 360.043 198.948V202.428ZM361.243 185.568V182.148H365.263V185.568H361.243ZM365.353 185.568V182.148H369.373V185.568H365.353ZM372.553 202.428V198.948H378.043L375.703 200.898V187.368H379.723V202.428H372.553ZM372.553 202.428C372.313 202.428 372.153 202.268 372.073 201.948C371.993 201.628 371.953 201.208 371.953 200.688C371.953 200.148 371.993 199.728 372.073 199.428C372.153 199.108 372.313 198.948 372.553 198.948V202.428ZM375.703 184.608V181.188H379.723V184.608H375.703ZM384.598 202.428V181.218H388.588V202.428H384.598ZM255.152 265.868C253.412 265.868 251.852 265.548 250.472 264.908C249.112 264.288 248.042 263.418 247.262 262.298C246.482 261.178 246.092 259.908 246.092 258.488C246.092 258.088 246.122 257.558 246.182 256.898C246.242 256.238 246.322 255.498 246.422 254.678C246.542 253.858 246.662 253.028 246.782 252.188C246.922 251.328 247.052 250.498 247.172 249.698L251.132 250.238C250.912 251.578 250.722 252.808 250.562 253.928C250.422 255.028 250.312 255.968 250.232 256.748C250.152 257.528 250.112 258.098 250.112 258.458C250.112 259.258 250.312 259.948 250.712 260.528C251.112 261.108 251.682 261.558 252.422 261.878C253.182 262.218 254.092 262.388 255.152 262.388C256.252 262.388 257.142 262.228 257.822 261.908C258.502 261.588 258.992 261.148 259.292 260.588C259.612 260.028 259.772 259.398 259.772 258.698V237.218H263.792V258.698C263.792 260.138 263.412 261.398 262.652 262.478C261.912 263.558 260.892 264.388 259.592 264.968C258.292 265.568 256.812 265.868 255.152 265.868ZM273.188 265.868C272.448 265.868 271.668 265.808 270.848 265.688C270.048 265.588 269.188 265.448 268.268 265.268L268.868 262.058C269.868 262.178 270.718 262.268 271.418 262.328C272.118 262.388 272.708 262.418 273.188 262.418C274.628 262.418 275.668 262.158 276.308 261.638C276.948 261.118 277.268 260.338 277.268 259.298V246.128L278.258 246.848H274.508C273.688 246.848 273.028 246.948 272.528 247.148C272.028 247.328 271.658 247.718 271.418 248.318C271.198 248.898 271.088 249.788 271.088 250.988C271.088 252.128 271.188 252.988 271.388 253.568C271.608 254.128 271.968 254.498 272.468 254.678C272.968 254.858 273.648 254.948 274.508 254.948H277.268V258.428H274.508C272.808 258.428 271.408 258.158 270.308 257.618C269.208 257.078 268.388 256.258 267.848 255.158C267.328 254.058 267.068 252.668 267.068 250.988C267.068 249.308 267.328 247.908 267.848 246.788C268.388 245.648 269.208 244.798 270.308 244.238C271.408 243.658 272.808 243.368 274.508 243.368H281.288V259.298C281.288 260.658 280.948 261.828 280.268 262.808C279.608 263.808 278.668 264.568 277.448 265.088C276.248 265.608 274.828 265.868 273.188 265.868ZM284.558 258.428V254.948H299.798L297.878 256.928V237.218H301.898V258.428H284.558ZM288.728 254.948V241.418H292.718V254.948H288.728ZM288.938 238.928C288.558 238.468 288.268 238.028 288.068 237.608C287.868 237.188 287.768 236.738 287.768 236.258C287.768 235.578 287.948 234.968 288.308 234.428C288.668 233.868 289.138 233.438 289.718 233.138C290.298 232.818 290.938 232.658 291.638 232.658C292.018 232.658 292.408 232.708 292.808 232.808C293.208 232.908 293.548 233.058 293.828 233.258L292.808 235.088C292.628 234.988 292.448 234.928 292.268 234.908C292.108 234.868 291.938 234.848 291.758 234.848C291.278 234.848 290.908 234.978 290.648 235.238C290.388 235.478 290.258 235.808 290.258 236.228C290.258 236.468 290.308 236.698 290.408 236.918C290.508 237.138 290.658 237.378 290.858 237.638L288.938 238.928ZM287.108 239.168V236.978H294.368V239.168H287.108ZM306.801 258.428V237.218H310.791V258.428H306.801ZM330.388 265.868C329.088 265.868 327.878 265.678 326.758 265.298C325.658 264.938 324.698 264.428 323.878 263.768C323.058 263.128 322.408 262.358 321.928 261.458C321.468 260.578 321.238 259.618 321.238 258.578C321.238 258.198 321.268 257.708 321.328 257.108C321.388 256.508 321.468 255.818 321.568 255.038C321.688 254.258 321.818 253.428 321.958 252.548L325.918 253.088C325.718 254.348 325.558 255.468 325.438 256.448C325.318 257.428 325.258 258.118 325.258 258.518C325.258 259.278 325.468 259.948 325.888 260.528C326.308 261.108 326.898 261.558 327.658 261.878C328.438 262.218 329.348 262.388 330.388 262.388H338.878C340.178 262.388 341.148 262.058 341.788 261.398C342.428 260.758 342.748 259.778 342.748 258.458C342.748 257.798 342.638 257.288 342.418 256.928C342.198 256.548 341.808 256.228 341.248 255.968C340.688 255.688 339.878 255.388 338.818 255.068C337.618 254.688 336.568 254.328 335.668 253.988C334.768 253.648 334.028 253.278 333.448 252.878C332.868 252.458 332.428 251.958 332.128 251.378C331.848 250.798 331.708 250.068 331.708 249.188C331.708 247.868 331.998 246.788 332.578 245.948C333.158 245.088 333.988 244.448 335.068 244.028C336.148 243.588 337.428 243.368 338.908 243.368C339.588 243.368 340.398 243.418 341.338 243.518C342.278 243.618 343.528 243.778 345.088 243.998L344.638 247.328C343.198 247.168 342.018 247.048 341.098 246.968C340.178 246.888 339.398 246.848 338.758 246.848C337.658 246.848 336.868 247.028 336.388 247.388C335.928 247.728 335.698 248.258 335.698 248.978C335.698 249.518 335.878 249.958 336.238 250.298C336.618 250.618 337.138 250.878 337.798 251.078C338.458 251.278 339.198 251.508 340.018 251.768C341.478 252.208 342.708 252.698 343.708 253.238C344.708 253.778 345.458 254.468 345.958 255.308C346.478 256.128 346.738 257.198 346.738 258.518C346.738 259.958 346.418 261.228 345.778 262.328C345.138 263.428 344.228 264.288 343.048 264.908C341.888 265.548 340.498 265.868 338.878 265.868H330.388ZM329.878 272.168V268.748H333.898V272.168H329.878ZM333.988 272.168V268.748H338.008V272.168H333.988ZM361.924 258.428V254.948H365.074V258.428H361.924ZM349.744 258.428V254.948H360.634L357.904 257.318V252.278C357.904 250.858 357.754 249.758 357.454 248.978C357.174 248.198 356.694 247.648 356.014 247.328C355.354 247.008 354.444 246.848 353.284 246.848H350.854V243.368H353.284C355.124 243.368 356.684 243.668 357.964 244.268C359.264 244.868 360.244 245.828 360.904 247.148C361.584 248.448 361.924 250.158 361.924 252.278V258.428H349.744ZM365.074 258.428V254.948C365.314 254.948 365.474 255.108 365.554 255.428C365.634 255.728 365.674 256.148 365.674 256.688C365.674 257.208 365.634 257.628 365.554 257.948C365.474 258.268 365.314 258.428 365.074 258.428ZM380.607 258.428V254.948H383.787V258.428H380.607ZM365.067 258.428V254.948H377.967L376.617 256.058V250.508C376.617 249.308 376.237 248.398 375.477 247.778C374.737 247.158 373.557 246.848 371.937 246.848C371.477 246.848 370.847 246.888 370.047 246.968C369.247 247.028 368.377 247.128 367.437 247.268L367.047 244.088C367.907 243.888 368.777 243.718 369.657 243.578C370.557 243.438 371.437 243.368 372.297 243.368C373.937 243.368 375.377 243.658 376.617 244.238C377.857 244.798 378.827 245.608 379.527 246.668C380.247 247.728 380.607 249.008 380.607 250.508V258.428H365.067ZM365.067 258.428C364.827 258.428 364.667 258.268 364.587 257.948C364.507 257.628 364.467 257.208 364.467 256.688C364.467 256.148 364.507 255.728 364.587 255.428C364.667 255.108 364.827 254.948 365.067 254.948V258.428ZM383.787 258.428V254.948C384.007 254.948 384.157 255.108 384.237 255.428C384.337 255.728 384.387 256.148 384.387 256.688C384.387 257.208 384.337 257.628 384.237 257.948C384.157 258.268 384.007 258.428 383.787 258.428ZM392.548 258.428V254.948H396.298V258.428H392.548ZM396.298 258.428V254.948C396.538 254.948 396.698 255.108 396.778 255.428C396.858 255.728 396.898 256.148 396.898 256.688C396.898 257.208 396.858 257.628 396.778 257.948C396.698 258.268 396.538 258.428 396.298 258.428ZM383.788 258.428V254.948H390.898L388.558 256.898V243.368H392.548V258.428H383.788ZM383.788 258.428C383.548 258.428 383.388 258.268 383.308 257.948C383.228 257.628 383.188 257.208 383.188 256.688C383.188 256.148 383.228 255.728 383.308 255.428C383.388 255.108 383.548 254.948 383.788 254.948V258.428ZM384.988 241.568V238.148H389.008V241.568H384.988ZM389.098 241.568V238.148H393.118V241.568H389.098ZM399.688 258.428V237.218H403.708V258.428H399.688ZM396.298 258.428V254.948H399.688V258.428H396.298ZM396.298 258.428C396.058 258.428 395.898 258.268 395.818 257.948C395.738 257.628 395.698 257.208 395.698 256.688C395.698 256.148 395.738 255.728 395.818 255.428C395.898 255.108 396.058 254.948 396.298 254.948V258.428ZM408.519 258.428V237.218H412.509V258.428H408.519Z" fill="#FDD456"/>
<path d="M219.166 206.319L204.776 175.738L163.909 229.985L177.682 276.804L219.166 206.319Z" fill="#FDD456"/>
<path d="M120.231 131.786L151.284 135.44L110.417 189.687L64.6429 191.647L120.231 131.786Z" fill="#FDD456"/>
<path d="M120.11 233.522L128.836 221.94L137.561 210.358L230.629 86.8185C230.629 86.8185 209.601 83.0014 171.783 111.626C150.026 128.093 132.576 145.626 115.566 165.044C104.635 177.522 94.7748 191.742 84.6562 206.813L91.7471 212.155L85.9303 219.876L94.2417 226.137L88.4249 233.859L108.477 248.965L114.294 241.243L120.11 233.522Z" fill="#DCDFD9"/>
<path d="M120.11 233.522L128.836 221.94L137.561 210.358L230.629 86.8185C230.629 86.8185 240.523 106.296 223.731 150.761C214.071 176.341 202.109 198.008 188.18 219.747C179.228 233.717 168.266 247.106 156.549 260.973L149.262 255.483L143.445 263.204L134.903 256.769L129.086 264.49L108.477 248.965L114.294 241.243L120.11 233.522Z" fill="#F9F1F9"/>
<path d="M91.4462 254.823C96.8078 258.863 100.52 261.659 109.593 268.494C119.579 276.017 86.4646 304.345 83.99 302.48C81.5154 300.616 64.5926 309.349 64.5926 309.349C64.5926 309.349 69.5548 291.606 65.8429 288.809C62.131 286.013 82.182 247.844 91.4462 254.823Z" fill="#E36018"/>
<path d="M93.0216 256.01C97.4508 259.347 100.517 261.657 108.013 267.304C116.262 273.518 90.8544 294.333 88.8102 292.793C86.766 291.253 73.5718 297.424 73.5718 297.424C73.5718 297.424 76.8855 283.81 73.8192 281.5C70.7528 279.19 85.3685 250.245 93.0216 256.01Z" fill="#FFAE44"/>
<path d="M95.3845 257.79C98.415 260.073 100.513 261.654 105.642 265.517C111.286 269.769 94.2386 283.564 92.8399 282.51C91.4412 281.457 82.5494 285.499 82.5494 285.499C82.5494 285.499 84.6809 276.364 82.5828 274.783C80.4848 273.203 90.1482 253.845 95.3845 257.79Z" fill="#FCE25E"/>
<path d="M92.3285 236.799L125.635 261.89L112.838 274.677L84.5782 253.387L92.3285 236.799Z" fill="#5B6575"/>
<path d="M212.453 136.668C205.689 145.647 195.051 147.2 188.936 142.594C182.821 137.987 181.379 127.334 188.144 118.354C194.908 109.375 205.546 107.822 211.661 112.429C217.776 117.036 219.218 127.689 212.453 136.668Z" fill="#00D5CC" stroke="#5B6575" stroke-width="10"/>
<path d="M160.757 164.464L177.443 157.016L174.887 175.109L106.487 251.203L160.757 164.464Z" fill="#FDD456"/>
<defs>
<filter id="filter0_d_2_95" x="35.0192" y="140.981" width="425.981" height="187.577" filterUnits="userSpaceOnUse" color-interpolation-filters="sRGB">
<feFlood flood-opacity="0" result="BackgroundImageFix"/>
<feColorMatrix in="SourceAlpha" type="matrix" values="0 0 0 0 0 0 0 0 0 0 0 0 0 0 0 0 0 0 127 0" result="hardAlpha"/>
<feOffset dy="4"/>
<feGaussianBlur stdDeviation="2"/>
<feComposite in2="hardAlpha" operator="out"/>
<feColorMatrix type="matrix" values="0 0 0 0 0 0 0 0 0 0 0 0 0 0 0 0 0 0 0.25 0"/>
<feBlend mode="normal" in2="BackgroundImageFix" result="effect1_dropShadow_2_95"/>
<feBlend mode="normal" in="SourceGraphic" in2="effect1_dropShadow_2_95" result="shape"/>
</filter>
<radialGradient id="paint0_radial_2_95" cx="0" cy="0" r="1" gradientUnits="userSpaceOnUse" gradientTransform="translate(257 257) rotate(90) scale(257 257)">
<stop stop-color="#F7956E"/>
<stop offset="1" stop-color="#F8F16F" stop-opacity="0"/>
</radialGradient>
</defs>
</svg>
