<svg width="160" height="141" viewBox="0 0 160 141" fill="none" xmlns="http://www.w3.org/2000/svg">
<ellipse cx="80" cy="70.5" rx="80" ry="70.5" fill="#36B5B0"/>
<ellipse cx="79.5" cy="70.5" rx="60.5" ry="57.5" fill="#F47D83"/>
<path d="M68.9961 88V82.816L76.2441 75.376C77.6201 73.968 78.8041 72.736 79.7961 71.68C80.7881 70.592 81.5401 69.568 82.0521 68.608C82.5961 67.648 82.8681 66.624 82.8681 65.536C82.8681 63.936 82.4201 62.864 81.5241 62.32C80.6281 61.744 79.1881 61.456 77.2041 61.456C76.4041 61.456 75.5241 61.504 74.5641 61.6C73.6041 61.696 72.6761 61.808 71.7801 61.936C70.9161 62.064 70.1641 62.192 69.5241 62.32L69.1881 57.232C69.8921 57.04 70.7561 56.832 71.7801 56.608C72.8361 56.384 73.9721 56.192 75.1881 56.032C76.4361 55.84 77.6521 55.744 78.8361 55.744C82.2921 55.744 84.9321 56.48 86.7561 57.952C88.5801 59.392 89.4921 61.632 89.4921 64.672C89.4921 66.336 89.2521 67.808 88.7721 69.088C88.3241 70.368 87.6041 71.6 86.6121 72.784C85.6521 73.936 84.3721 75.2 82.7721 76.576L76.4361 82.624H89.9241V88H68.9961Z" fill="white"/>
</svg>
