<svg width="23" height="23" viewBox="0 0 23 23" fill="none" xmlns="http://www.w3.org/2000/svg">
<g clip-path="url(#clip0_2_160)">
<path d="M6.66431 21.9549H1.28285V7.02891H6.66407V21.9549H6.66431ZM2.35778 20.88H5.58914V8.1036H2.35778V20.88ZM3.97358 6.21154C2.30146 6.21154 0.941284 4.85088 0.941284 3.17803C0.941284 1.5047 2.30146 0.143555 3.97358 0.143555C5.64546 0.143555 7.00587 1.50494 7.00587 3.17803C7.00587 4.85088 5.6457 6.21154 3.97358 6.21154ZM3.97358 1.21849C2.89428 1.21849 2.01622 2.09752 2.01622 3.17803C2.01622 4.25782 2.89428 5.13661 3.97358 5.13661C5.05288 5.13661 5.93094 4.25807 5.93094 3.17803C5.93094 2.09752 5.05288 1.21849 3.97358 1.21849Z" fill="black"/>
<path d="M22.7894 21.9548H17.4114V14.6813C17.4114 12.5571 17.157 11.5461 15.7118 11.5461C14.2213 11.5461 13.6673 12.3644 13.6673 14.5657V21.9548H8.28925V7.02881H13.4937V8.01101C14.3133 7.27545 15.5239 6.68579 17.088 6.68579C22.1122 6.68555 22.7894 10.2925 22.7894 13.8207V21.9548ZM18.4863 20.8799H21.7145V13.8205C21.7145 10.0793 20.9404 7.76048 17.0878 7.76048C15.1918 7.76048 13.9649 8.81114 13.4903 9.71105L13.3391 9.99774H12.4186V8.1035H9.36418V20.8799H12.5924V14.5657C12.5924 13.4456 12.5924 10.4711 15.7118 10.4711C18.4863 10.4711 18.4863 13.2099 18.4863 14.6813V20.8799Z" fill="black"/>
</g>
<defs>
<clipPath id="clip0_2_160">
<rect width="22.1161" height="22.1161" fill="white" transform="translate(0.819702 0.00341797)"/>
</clipPath>
</defs>
</svg>
