<svg width="471" height="318" viewBox="0 0 471 318" fill="none" xmlns="http://www.w3.org/2000/svg">
<g filter="url(#filter0_d_9_205)">
<path d="M348.424 91.7745C350.628 89.8359 355.337 89.9993 356.919 87.5255C359.513 83.4697 338.785 76.5485 332.622 88.9174C315.34 123.599 349.282 142.535 373.284 138.513C379.428 137.484 376.815 136.503 372.41 136.682C355.04 137.384 337.718 140.254 320.316 139.978C287.314 139.455 289.257 117.892 288.836 83.7893C288.811 81.774 287.842 27.1027 286.587 40.3473" stroke="white" stroke-width="15" stroke-linecap="round" shape-rendering="crispEdges"/>
</g>
<g filter="url(#filter1_d_9_205)">
<path d="M240.49 8.70003C243.671 5.38387 243.136 14.8206 243.301 16.7584C244.537 31.2533 242.228 46.8254 240.678 61.0795C239.11 75.486 239.223 109.842 223.251 115.144C194.952 124.537 206.286 80.8116 191.332 78.4417C180.879 76.7849 174.395 96.8164 176.466 105.987C179.238 118.257 191.556 121.382 197.204 110.089C203.318 97.8632 193.459 62.2286 178.028 73.3136C169.933 79.1285 168.476 99.7678 166.285 109.503C159.083 141.514 135.898 153.134 108.945 145.839" stroke="white" stroke-width="15" stroke-linecap="round" shape-rendering="crispEdges"/>
</g>
<g filter="url(#filter2_d_9_205)">
<path d="M459 187.519C458.876 186.65 458.407 185.902 458.352 185.012C458.308 184.278 458.642 182.522 458.078 186.208C456.864 194.138 455.702 208.29 448.839 212.826C443.21 216.546 438.346 207.729 436.56 204.038C433.317 197.338 432.477 189.611 432.323 182.113C432.231 177.687 432.923 188.352 433.068 189.383C435.589 207.263 425.457 246.354 404.351 233.025C388.914 223.276 389.947 203.011 393.288 185.771C394.231 180.905 392.192 186.362 391.915 187.565C390.499 193.694 389.816 200.051 387.442 205.832C383.86 214.557 375.705 221.214 367.63 223.017C360.912 224.518 353.916 224.436 347.113 224.881C336.072 225.603 325.044 226.571 314.002 227.274C286.873 228.999 260.013 226.73 232.911 225.893C210.604 225.205 188.407 227.66 166.1 226.882C154.928 226.493 143.766 226.129 132.597 225.709C131.142 225.655 119.242 227.271 120.003 223.616C121.283 217.476 130.185 212.071 134.99 211.492C144.835 210.304 149.934 223.339 152.683 232.289C158.505 251.243 153.975 269.734 141.953 283.983C118.978 311.216 81.5967 301.194 53.3105 294.773" stroke="white" stroke-width="15" stroke-linecap="round" shape-rendering="crispEdges"/>
</g>
<g filter="url(#filter3_d_9_205)">
<path d="M83.3223 151.906C84.0817 151.683 83.7269 149.197 84.7542 150.503C85.5355 151.495 85.7286 153.299 85.8723 154.575C87.2051 166.41 87.6074 178.528 88.4615 190.395C89.9597 211.21 92.3155 231.792 94.2678 252.534" stroke="white" stroke-width="15" stroke-linecap="round"/>
</g>
<g filter="url(#filter4_d_9_205)">
<path d="M60.0189 187.105C58.7902 186.342 57.566 185.861 58.4104 188.21C61.6418 197.197 59.479 209.757 56.9785 218.393C52.9116 232.44 48.7929 240.328 39.658 250.74C36.1973 254.684 32.2171 258.003 28.124 261C12.2437 272.63 25.0714 261.232 12 268.27" stroke="white" stroke-width="15" stroke-linecap="round"/>
</g>
<g filter="url(#filter5_d_9_205)">
<path d="M348.424 91.7745C350.628 89.8359 355.337 89.9993 356.919 87.5255C359.513 83.4697 338.785 76.5485 332.622 88.9174C315.34 123.599 349.282 142.535 373.284 138.513C379.428 137.484 376.815 136.503 372.41 136.682C355.04 137.384 337.718 140.254 320.316 139.978C287.314 139.455 289.257 117.892 288.836 83.7893C288.811 81.774 287.842 27.1027 286.587 40.3473" stroke="white" stroke-width="15" stroke-linecap="round" shape-rendering="crispEdges"/>
</g>
<g filter="url(#filter6_d_9_205)">
<path d="M240.49 8.70003C243.671 5.38387 243.136 14.8206 243.301 16.7584C244.537 31.2533 242.228 46.8254 240.678 61.0795C239.11 75.486 239.223 109.842 223.251 115.144C194.952 124.537 206.286 80.8116 191.332 78.4417C180.879 76.7849 174.395 96.8164 176.466 105.987C179.238 118.257 191.556 121.382 197.204 110.089C203.318 97.8632 193.459 62.2286 178.028 73.3136C169.933 79.1285 168.476 99.7678 166.285 109.503C159.083 141.514 135.898 153.134 108.945 145.839" stroke="white" stroke-width="15" stroke-linecap="round" shape-rendering="crispEdges"/>
</g>
<g filter="url(#filter7_d_9_205)">
<path d="M459 187.519C458.876 186.65 458.407 185.902 458.352 185.012C458.308 184.278 458.642 182.522 458.078 186.208C456.864 194.138 455.702 208.29 448.839 212.826C443.21 216.546 438.346 207.729 436.56 204.038C433.317 197.338 432.477 189.611 432.323 182.113C432.231 177.687 432.923 188.352 433.068 189.383C435.589 207.263 425.457 246.354 404.351 233.025C388.914 223.276 389.947 203.011 393.288 185.771C394.231 180.905 392.192 186.362 391.915 187.565C390.499 193.694 389.816 200.051 387.442 205.832C383.86 214.557 375.705 221.214 367.63 223.017C360.912 224.518 353.916 224.436 347.113 224.881C336.072 225.603 325.044 226.571 314.002 227.274C286.873 228.999 260.013 226.73 232.911 225.893C210.604 225.205 188.407 227.66 166.1 226.882C154.928 226.493 143.766 226.129 132.597 225.709C131.142 225.655 119.242 227.271 120.003 223.616C121.283 217.476 130.185 212.071 134.99 211.492C144.835 210.304 149.934 223.339 152.683 232.289C158.505 251.243 153.975 269.734 141.953 283.983C118.978 311.216 81.5967 301.194 53.3105 294.773" stroke="white" stroke-width="15" stroke-linecap="round" shape-rendering="crispEdges"/>
</g>
<g filter="url(#filter8_d_9_205)">
<path d="M83.3223 151.906C84.0817 151.683 83.7269 149.197 84.7542 150.503C85.5355 151.495 85.7286 153.299 85.8723 154.575C87.2051 166.41 87.6074 178.528 88.4615 190.395C89.9597 211.21 92.3155 231.792 94.2678 252.534" stroke="white" stroke-width="15" stroke-linecap="round"/>
</g>
<g filter="url(#filter9_d_9_205)">
<path d="M60.0189 187.105C58.7902 186.342 57.566 185.861 58.4104 188.21C61.6418 197.197 59.479 209.757 56.9785 218.393C52.9116 232.44 48.7929 240.328 39.658 250.74C36.1973 254.684 32.2171 258.003 28.124 261C12.2437 272.63 25.0714 261.232 12 268.27" stroke="white" stroke-width="15" stroke-linecap="round"/>
</g>
<defs>
<filter id="filter0_d_9_205" x="275.086" y="30.7747" width="113.323" height="124.722" filterUnits="userSpaceOnUse" color-interpolation-filters="sRGB">
<feFlood flood-opacity="0" result="BackgroundImageFix"/>
<feColorMatrix in="SourceAlpha" type="matrix" values="0 0 0 0 0 0 0 0 0 0 0 0 0 0 0 0 0 0 127 0" result="hardAlpha"/>
<feOffset dy="4"/>
<feGaussianBlur stdDeviation="2"/>
<feComposite in2="hardAlpha" operator="out"/>
<feColorMatrix type="matrix" values="0 0 0 0 0 0 0 0 0 0 0 0 0 0 0 0 0 0 0.15 0"/>
<feBlend mode="normal" in2="BackgroundImageFix" result="effect1_dropShadow_9_205"/>
<feBlend mode="normal" in="SourceGraphic" in2="effect1_dropShadow_9_205" result="shape"/>
</filter>
<filter id="filter1_d_9_205" x="97.4429" y="0.496155" width="157.705" height="162.941" filterUnits="userSpaceOnUse" color-interpolation-filters="sRGB">
<feFlood flood-opacity="0" result="BackgroundImageFix"/>
<feColorMatrix in="SourceAlpha" type="matrix" values="0 0 0 0 0 0 0 0 0 0 0 0 0 0 0 0 0 0 127 0" result="hardAlpha"/>
<feOffset dy="4"/>
<feGaussianBlur stdDeviation="2"/>
<feComposite in2="hardAlpha" operator="out"/>
<feColorMatrix type="matrix" values="0 0 0 0 0 0 0 0 0 0 0 0 0 0 0 0 0 0 0.15 0"/>
<feBlend mode="normal" in2="BackgroundImageFix" result="effect1_dropShadow_9_205"/>
<feBlend mode="normal" in="SourceGraphic" in2="effect1_dropShadow_9_205" result="shape"/>
</filter>
<filter id="filter2_d_9_205" x="41.8088" y="173.535" width="428.692" height="143.965" filterUnits="userSpaceOnUse" color-interpolation-filters="sRGB">
<feFlood flood-opacity="0" result="BackgroundImageFix"/>
<feColorMatrix in="SourceAlpha" type="matrix" values="0 0 0 0 0 0 0 0 0 0 0 0 0 0 0 0 0 0 127 0" result="hardAlpha"/>
<feOffset dy="4"/>
<feGaussianBlur stdDeviation="2"/>
<feComposite in2="hardAlpha" operator="out"/>
<feColorMatrix type="matrix" values="0 0 0 0 0 0 0 0 0 0 0 0 0 0 0 0 0 0 0.15 0"/>
<feBlend mode="normal" in2="BackgroundImageFix" result="effect1_dropShadow_9_205"/>
<feBlend mode="normal" in="SourceGraphic" in2="effect1_dropShadow_9_205" result="shape"/>
</filter>
<filter id="filter3_d_9_205" x="71.8203" y="142.619" width="33.948" height="125.415" filterUnits="userSpaceOnUse" color-interpolation-filters="sRGB">
<feFlood flood-opacity="0" result="BackgroundImageFix"/>
<feColorMatrix in="SourceAlpha" type="matrix" values="0 0 0 0 0 0 0 0 0 0 0 0 0 0 0 0 0 0 127 0" result="hardAlpha"/>
<feOffset dy="4"/>
<feGaussianBlur stdDeviation="2"/>
<feComposite in2="hardAlpha" operator="out"/>
<feColorMatrix type="matrix" values="0 0 0 0 0 0 0 0 0 0 0 0 0 0 0 0 0 0 0.15 0"/>
<feBlend mode="normal" in2="BackgroundImageFix" result="effect1_dropShadow_9_205"/>
<feBlend mode="normal" in="SourceGraphic" in2="effect1_dropShadow_9_205" result="shape"/>
</filter>
<filter id="filter4_d_9_205" x="0.498535" y="178.98" width="71.0405" height="104.791" filterUnits="userSpaceOnUse" color-interpolation-filters="sRGB">
<feFlood flood-opacity="0" result="BackgroundImageFix"/>
<feColorMatrix in="SourceAlpha" type="matrix" values="0 0 0 0 0 0 0 0 0 0 0 0 0 0 0 0 0 0 127 0" result="hardAlpha"/>
<feOffset dy="4"/>
<feGaussianBlur stdDeviation="2"/>
<feComposite in2="hardAlpha" operator="out"/>
<feColorMatrix type="matrix" values="0 0 0 0 0 0 0 0 0 0 0 0 0 0 0 0 0 0 0.15 0"/>
<feBlend mode="normal" in2="BackgroundImageFix" result="effect1_dropShadow_9_205"/>
<feBlend mode="normal" in="SourceGraphic" in2="effect1_dropShadow_9_205" result="shape"/>
</filter>
<filter id="filter5_d_9_205" x="275.086" y="30.7747" width="113.323" height="124.722" filterUnits="userSpaceOnUse" color-interpolation-filters="sRGB">
<feFlood flood-opacity="0" result="BackgroundImageFix"/>
<feColorMatrix in="SourceAlpha" type="matrix" values="0 0 0 0 0 0 0 0 0 0 0 0 0 0 0 0 0 0 127 0" result="hardAlpha"/>
<feOffset dy="4"/>
<feGaussianBlur stdDeviation="2"/>
<feComposite in2="hardAlpha" operator="out"/>
<feColorMatrix type="matrix" values="0 0 0 0 0 0 0 0 0 0 0 0 0 0 0 0 0 0 0.15 0"/>
<feBlend mode="normal" in2="BackgroundImageFix" result="effect1_dropShadow_9_205"/>
<feBlend mode="normal" in="SourceGraphic" in2="effect1_dropShadow_9_205" result="shape"/>
</filter>
<filter id="filter6_d_9_205" x="97.4429" y="0.496155" width="157.705" height="162.941" filterUnits="userSpaceOnUse" color-interpolation-filters="sRGB">
<feFlood flood-opacity="0" result="BackgroundImageFix"/>
<feColorMatrix in="SourceAlpha" type="matrix" values="0 0 0 0 0 0 0 0 0 0 0 0 0 0 0 0 0 0 127 0" result="hardAlpha"/>
<feOffset dy="4"/>
<feGaussianBlur stdDeviation="2"/>
<feComposite in2="hardAlpha" operator="out"/>
<feColorMatrix type="matrix" values="0 0 0 0 0 0 0 0 0 0 0 0 0 0 0 0 0 0 0.15 0"/>
<feBlend mode="normal" in2="BackgroundImageFix" result="effect1_dropShadow_9_205"/>
<feBlend mode="normal" in="SourceGraphic" in2="effect1_dropShadow_9_205" result="shape"/>
</filter>
<filter id="filter7_d_9_205" x="41.8088" y="173.535" width="428.692" height="143.965" filterUnits="userSpaceOnUse" color-interpolation-filters="sRGB">
<feFlood flood-opacity="0" result="BackgroundImageFix"/>
<feColorMatrix in="SourceAlpha" type="matrix" values="0 0 0 0 0 0 0 0 0 0 0 0 0 0 0 0 0 0 127 0" result="hardAlpha"/>
<feOffset dy="4"/>
<feGaussianBlur stdDeviation="2"/>
<feComposite in2="hardAlpha" operator="out"/>
<feColorMatrix type="matrix" values="0 0 0 0 0 0 0 0 0 0 0 0 0 0 0 0 0 0 0.15 0"/>
<feBlend mode="normal" in2="BackgroundImageFix" result="effect1_dropShadow_9_205"/>
<feBlend mode="normal" in="SourceGraphic" in2="effect1_dropShadow_9_205" result="shape"/>
</filter>
<filter id="filter8_d_9_205" x="71.8203" y="142.619" width="33.948" height="125.415" filterUnits="userSpaceOnUse" color-interpolation-filters="sRGB">
<feFlood flood-opacity="0" result="BackgroundImageFix"/>
<feColorMatrix in="SourceAlpha" type="matrix" values="0 0 0 0 0 0 0 0 0 0 0 0 0 0 0 0 0 0 127 0" result="hardAlpha"/>
<feOffset dy="4"/>
<feGaussianBlur stdDeviation="2"/>
<feComposite in2="hardAlpha" operator="out"/>
<feColorMatrix type="matrix" values="0 0 0 0 0 0 0 0 0 0 0 0 0 0 0 0 0 0 0.15 0"/>
<feBlend mode="normal" in2="BackgroundImageFix" result="effect1_dropShadow_9_205"/>
<feBlend mode="normal" in="SourceGraphic" in2="effect1_dropShadow_9_205" result="shape"/>
</filter>
<filter id="filter9_d_9_205" x="0.498535" y="178.98" width="71.0405" height="104.791" filterUnits="userSpaceOnUse" color-interpolation-filters="sRGB">
<feFlood flood-opacity="0" result="BackgroundImageFix"/>
<feColorMatrix in="SourceAlpha" type="matrix" values="0 0 0 0 0 0 0 0 0 0 0 0 0 0 0 0 0 0 127 0" result="hardAlpha"/>
<feOffset dy="4"/>
<feGaussianBlur stdDeviation="2"/>
<feComposite in2="hardAlpha" operator="out"/>
<feColorMatrix type="matrix" values="0 0 0 0 0 0 0 0 0 0 0 0 0 0 0 0 0 0 0.15 0"/>
<feBlend mode="normal" in2="BackgroundImageFix" result="effect1_dropShadow_9_205"/>
<feBlend mode="normal" in="SourceGraphic" in2="effect1_dropShadow_9_205" result="shape"/>
</filter>
</defs>
</svg>
