<svg width="109" height="85" viewBox="0 0 109 85" fill="none" xmlns="http://www.w3.org/2000/svg">
<ellipse cx="64.5" cy="42.5" rx="44.5" ry="42.5" fill="#4BBD9B" fill-opacity="0.5"/>
<ellipse cx="44.5" cy="42.5" rx="44.5" ry="42.5" fill="#4BBD9B"/>
<path d="M41.0196 56.256C40.785 56.256 40.497 56.2347 40.1556 56.192C39.8143 56.1707 39.4623 56.1493 39.0996 56.128L39.2596 52C39.601 52 39.9316 52.0107 40.2516 52.032C40.5716 52.0533 40.8063 52.064 40.9556 52.064C41.745 52.064 42.3636 51.7547 42.8116 51.136C43.281 50.5173 43.5156 49.6213 43.5156 48.448V31.904H48.4116V48.448C48.4116 49.9627 48.1023 51.3067 47.4836 52.48C46.865 53.6747 46.001 54.6027 44.8916 55.264C43.7823 55.9253 42.4916 56.256 41.0196 56.256Z" fill="white"/>
</svg>
