<svg width="108" height="85" viewBox="0 0 108 85" fill="none" xmlns="http://www.w3.org/2000/svg">
<ellipse cx="63.5" cy="42.5" rx="44.5" ry="42.5" fill="#F47D83" fill-opacity="0.5"/>
<ellipse cx="44.5" cy="42.5" rx="44.5" ry="42.5" fill="#F47D83"/>
<path d="M31.8704 55.44C30.0904 55.44 28.5004 55.11 27.1004 54.45C25.7004 53.81 24.6004 52.92 23.8004 51.78C23.0004 50.64 22.6004 49.34 22.6004 47.88C22.6004 47.48 22.6304 46.96 22.6904 46.32C22.7504 45.66 22.8304 44.93 22.9304 44.13C23.0304 43.33 23.1404 42.51 23.2604 41.67C23.4004 40.81 23.5304 39.98 23.6504 39.18L28.1804 39.78C27.9804 41.12 27.8004 42.34 27.6404 43.44C27.5004 44.52 27.3904 45.44 27.3104 46.2C27.2304 46.94 27.1904 47.49 27.1904 47.85C27.1904 48.59 27.3704 49.23 27.7304 49.77C28.0904 50.33 28.6204 50.76 29.3204 51.06C30.0204 51.36 30.8704 51.51 31.8704 51.51C32.9304 51.51 33.7704 51.35 34.3904 51.03C35.0104 50.73 35.4504 50.32 35.7104 49.8C35.9704 49.3 36.1004 48.73 36.1004 48.09V36H40.6904V48.09C40.6904 49.57 40.3104 50.86 39.5504 51.96C38.7904 53.06 37.7404 53.91 36.4004 54.51C35.0804 55.13 33.5704 55.44 31.8704 55.44ZM40.6304 48L40.6904 44.07H42.8204C43.4404 44.07 43.9204 43.98 44.2604 43.8C44.6004 43.6 44.8304 43.21 44.9504 42.63C45.0904 42.03 45.1604 41.13 45.1604 39.93V34.5H49.7504V39.93C49.7504 41.81 49.5004 43.35 49.0004 44.55C48.5004 45.73 47.7404 46.6 46.7204 47.16C45.7004 47.72 44.4004 48 42.8204 48H40.6304ZM51.0104 48C50.1304 48 49.2604 47.84 48.4004 47.52C47.5604 47.18 46.7704 46.69 46.0304 46.05L48.8204 43.17C49.1804 43.47 49.5404 43.7 49.9004 43.86C50.2604 44 50.6304 44.07 51.0104 44.07H56.7404L54.2204 46.29V39.78C54.2204 39.48 54.1804 39.01 54.1004 38.37C54.0404 37.71 53.9404 36.97 53.8004 36.15C53.6804 35.31 53.5404 34.46 53.3804 33.6L57.9104 32.91C58.0504 33.63 58.1804 34.44 58.3004 35.34C58.4404 36.24 58.5604 37.09 58.6604 37.89C58.7604 38.69 58.8104 39.32 58.8104 39.78V48H51.0104Z" fill="white"/>
</svg>
