<svg width="309" height="57" viewBox="0 0 309 57" fill="none" xmlns="http://www.w3.org/2000/svg">
<path d="M36 0L44.0825 19.3475H70.238L49.0778 31.305L57.1603 50.6525L36 38.695L14.8397 50.6525L22.9222 31.305L1.76197 19.3475H27.9175L36 0Z" fill="#FDD456"/>
<path d="M115 0L123.083 19.3475H149.238L128.078 31.305L136.16 50.6525L115 38.695L93.8397 50.6525L101.922 31.305L80.762 19.3475H106.917L115 0Z" fill="#D9D9D9"/>
<path d="M196 1L204.083 20.3475H230.238L209.078 32.305L217.16 51.6525L196 39.695L174.84 51.6525L182.922 32.305L161.762 20.3475H187.917L196 1Z" fill="#D9D9D9"/>
<path d="M273 1L281.083 20.3475H307.238L286.078 32.305L294.16 51.6525L273 39.695L251.84 51.6525L259.922 32.305L238.762 20.3475H264.917L273 1Z" fill="#D9D9D9"/>
</svg>
