<svg width="30" height="20" viewBox="0 0 30 20" fill="none" xmlns="http://www.w3.org/2000/svg">
<path d="M9.93497 19.7314C6.87103 19.7314 3.88737 18.9662 1.30604 17.5189L0.121704 16.8545L1.51902 16.9987C1.93689 17.0417 2.36706 17.0638 2.79658 17.0638C4.94903 17.0638 6.99435 16.5229 8.76131 15.4925C6.63799 15.1747 4.85743 13.8501 4.1858 12.016L4.01911 11.5614L4.55512 11.6515C4.89369 11.7081 5.23776 11.7379 5.57341 11.7334C3.57826 10.9035 2.23629 9.11897 2.23629 7.11633C2.23629 7.08971 2.23629 7.0645 2.23791 7.0393L2.26607 6.58671L2.71857 6.80706C3.11281 6.99908 3.53553 7.14494 3.97218 7.24095C2.89789 6.29302 2.28128 5.00607 2.28128 3.64096C2.28128 2.7392 2.55479 1.85102 3.07203 1.07302L3.30734 0.719L3.60286 1.03649C6.26122 3.88991 10.1486 5.66795 14.3221 5.95117C14.2761 5.69118 14.2528 5.42524 14.2528 5.15703C14.2528 2.34014 16.8727 0.0483398 20.0926 0.0483398C21.6392 0.0483398 23.1358 0.592968 24.227 1.54741C25.3637 1.33472 26.449 0.962851 27.455 0.441163L28.1885 0.0608013L27.9285 0.771396C27.6363 1.57092 27.1236 2.28944 26.4429 2.86948C27.0572 2.73806 27.655 2.55992 28.2309 2.33589L29.2527 1.93882L28.6322 2.75222C27.9007 3.71063 26.996 4.54471 25.9418 5.23293C25.948 5.3938 25.9505 5.55552 25.9505 5.71752C25.9505 12.6062 19.9599 19.7314 9.93497 19.7314ZM2.81373 17.6305C5.00665 18.6371 7.4433 19.1644 9.93529 19.1644C19.5547 19.1644 25.3032 12.3273 25.3032 5.71723C25.3032 5.51247 25.2983 5.30883 25.288 5.10605L25.2802 4.95311L25.422 4.86333C26.1758 4.38667 26.8507 3.8327 27.4378 3.20934C26.7251 3.41382 25.9878 3.55656 25.2342 3.63558L23.7301 3.79277L25.029 3.11106C25.8606 2.67462 26.5303 2.05098 26.9708 1.31319C26.0852 1.69185 25.1504 1.96714 24.1813 2.13396L24.0056 2.16426L23.8826 2.04984C22.9041 1.1376 21.5226 0.614493 20.0933 0.614493C17.2303 0.614493 14.9012 2.65196 14.9012 5.15646C14.9012 5.51048 14.9465 5.85884 15.0355 6.19219L15.1336 6.55867L14.704 6.5397C10.3541 6.34853 6.26737 4.59852 3.41545 1.72074C3.09663 2.31975 2.92961 2.97568 2.92961 3.6404C2.92961 5.16326 3.79318 6.5768 5.2397 7.42164L6.18031 7.97108L5.05002 7.94078C4.31333 7.92095 3.58182 7.77595 2.90501 7.51793C3.10698 9.50188 4.78752 11.172 7.04906 11.5682L8.39426 11.8042L7.07074 12.1197C6.39717 12.28 5.69544 12.3349 4.99111 12.2771C5.79642 13.8895 7.60902 14.9643 9.65337 14.9974L10.5642 15.0125L9.84725 15.5038C7.82168 16.8925 5.39021 17.6271 2.81373 17.6305Z" fill="black"/>
</svg>
