<svg width="108" height="85" viewBox="0 0 108 85" fill="none" xmlns="http://www.w3.org/2000/svg">
<ellipse cx="63.5" cy="42.5" rx="44.5" ry="42.5" fill="#FDD456" fill-opacity="0.5"/>
<ellipse cx="44" cy="42.5" rx="44" ry="42.5" fill="#FDD456"/>
<path d="M42.4048 59.256C41.5941 59.256 40.7514 59.192 39.8768 59.064C39.0021 58.9573 38.0848 58.7973 37.1248 58.584L37.8608 54.68C38.9061 54.808 39.7914 54.904 40.5168 54.968C41.2634 55.032 41.8928 55.064 42.4048 55.064C43.8554 55.064 44.9008 54.808 45.5408 54.296C46.1808 53.784 46.5008 53.0053 46.5008 51.96V38.392L47.4928 39.096H43.9408C43.2154 39.096 42.6074 39.192 42.1168 39.384C41.6261 39.5547 41.2528 39.928 40.9968 40.504C40.7621 41.0587 40.6448 41.9227 40.6448 43.096C40.6448 44.184 40.7514 44.9947 40.9648 45.528C41.1781 46.0613 41.5301 46.4133 42.0208 46.584C42.5114 46.7333 43.1514 46.808 43.9408 46.808H46.5008V51H43.9408C42.1488 51 40.6341 50.712 39.3968 50.136C38.1808 49.56 37.2634 48.6853 36.6448 47.512C36.0474 46.3387 35.7488 44.8667 35.7488 43.096C35.7488 41.304 36.0474 39.8 36.6448 38.584C37.2634 37.368 38.1808 36.4507 39.3968 35.832C40.6341 35.2133 42.1488 34.904 43.9408 34.904H51.3968V51.96C51.3968 53.4533 51.0234 54.744 50.2768 55.832C49.5301 56.9413 48.4848 57.784 47.1408 58.36C45.7968 58.9573 44.2181 59.256 42.4048 59.256Z" fill="white"/>
</svg>
